<?xml version="1.0" encoding="UTF-8"?>
<svg version="1.1" viewBox="0 0 1600 1600" width="1280" height="1280" xmlns="http://www.w3.org/2000/svg">
<path transform="translate(0)" d="m0 0h1412v421l-425 1v1178h-561c-1.55-3.1-1.14-6.39-1.12-9.8-0.00192-1.23-0.00192-1.23-0.00387-2.48-0.00309-2.78 0.00102-5.57 0.00502-8.35-7.39e-4 -2.01-0.00192-4.02-0.0035-6.03-0.00309-5.57 1.22e-4 -11.1 0.00428-16.7 0.00342-6.04 0.00107-12.1-5.77e-4 -18.1-0.00208-10.6-4.53e-4 -21.2 0.00364-31.8 0.00437-11.4 0.00657-22.8 0.0061-34.2-2.87e-5 -0.718-5.74e-5 -1.44-8.69e-5 -2.18-1.56e-4 -3.66-3.48e-4 -7.32-5.53e-4 -11-0.00141-26.5 0.00203-53 0.00802-79.6 0.00592-26.3 0.00977-52.5 0.0109-78.8 5.16e-5 -1.22 5.16e-5 -1.22 1.04e-4 -2.47 3.13e-4 -7.45 6.01e-4 -14.9 8.58e-4 -22.3 6.39e-4 -18.5 0.0016-37 0.00278-55.5 5.33e-5 -0.843 1.07e-4 -1.69 1.62e-4 -2.56 0.00262-41 0.00893-82.1 0.0155-123 0.00229-14.2 0.00457-28.5 0.00677-42.7 2.05e-4 -1.33 2.05e-4 -1.33 4.15e-4 -2.68 0.00634-41 0.0101-82.1 0.0131-123 1.98e-4 -2.66 3.97e-4 -5.33 5.97e-4 -7.99 0.00132-17.7 0.00259-35.3 0.00384-53 0.00248-35.1 0.00522-70.3 0.00814-105 1.39e-4 -1.67 2.78e-4 -3.35 4.17e-4 -5.02 0.00428-51.5 0.00975-103 0.0165-155 2.71e-4 -2.08 5.42e-4 -4.16 8.12e-4 -6.24 0.00755-57.7 0.0164-115 0.0248-173l-425 1v-422z" fill="#000002"/>
<path transform="translate(1082,516)" d="m0 0c12-0.0231 24-0.0409 35.9-0.0518 5.56-0.00523 11.1-0.0123 16.7-0.0236 5.36-0.0108 10.7-0.0168 16.1-0.0194 2.05-0.00185 4.1-0.00548 6.15-0.0109 2.86-0.00721 5.72-0.00826 8.58-0.0078 1.29-0.00539 1.29-0.00539 2.6-0.0109 5.85 0.0104 5.85 0.0104 6.96 1.12 0.0992 2.37 0.133 4.7 0.124 7.07 0.00128 0.753 0.00256 1.51 0.00387 2.28 0.0031 2.56-0.00102 5.12-0.00502 7.69 7.39e-4 1.85 0.00192 3.7 0.0035 5.54 0.00309 5.13-1.24e-4 10.3-0.00428 15.4-0.00342 5.56-0.00107 11.1 5.77e-4 16.7 0.00208 9.76 4.19e-4 19.5-0.00364 29.3-0.00602 14.5-0.00634 29-0.00546 43.5 0.00141 24.4-0.00203 48.8-0.00802 73.2-0.00592 24.2-0.00977 48.4-0.0109 72.5-3.44e-5 0.75-6.88e-5 1.5-1.04e-4 2.27-3.13e-4 6.85-6.01e-4 13.7-8.58e-4 20.6-6.39e-4 17-0.0016 34.1-0.00278 51.1-8e-5 1.16-8e-5 1.16-1.62e-4 2.35-0.00262 37.8-0.00893 75.5-0.0155 113-0.00229 13.1-0.00457 26.2-0.00677 39.3-1.37e-4 0.813-2.74e-4 1.63-4.15e-4 2.46-0.00634 37.8-0.0101 75.6-0.0131 113-1.98e-4 2.45-3.97e-4 4.9-5.97e-4 7.36-0.00132 16.2-0.00259 32.5-0.00384 48.7-0.00248 32.3-0.00522 64.7-0.00814 97-1.39e-4 1.54-2.78e-4 3.08-4.17e-4 4.62-0.00718 79.6-0.0186 159-0.031 239-1.73e-4 1.11-3.47e-4 2.22-5.25e-4 3.36-0.00341 21.8-0.00702 43.6-0.0106 65.4h-93c-1.15-18.4-1.15-18.4-1.13-24.8-0.0014-0.759-0.0028-1.52-0.00425-2.3-0.00342-2.49 1.27e-4 -4.98 0.00376-7.47-0.00105-1.83-0.00253-3.66-0.0044-5.5-0.00387-5.01-0.00157-10 0.00178-15 0.00255-5.46-7.27e-4 -10.9-0.00324-16.4-0.00361-9.56-0.00351-19.1-9.53e-4 -28.7 0.00378-14.2 0.00185-28.4-0.00121-42.7-0.00506-23.9-0.00515-47.8-0.00242-71.8 8.28e-5 -0.728 1.66e-4 -1.46 2.51e-4 -2.21 8.29e-5 -0.729 1.66e-4 -1.46 2.51e-4 -2.21 0.00252-22.2 0.00317-44.4 0.00198-66.7-7.75e-5 -1.49-1.55e-4 -2.98-2.31e-4 -4.46-3.1e-4 -5.98-6.29e-4 -12-9.6e-4 -17.9-9.17e-4 -16.7-0.00149-33.4-0.00179-50.2-1.36e-5 -0.761-2.73e-5 -1.52-4.14e-5 -2.31-4.09e-4 -24.2 7.17e-4 -48.5 0.00289-72.7 7.02e-5 -0.786 1.4e-4 -1.57 2.13e-4 -2.38 0.00114-12.8 0.00236-25.5 0.00359-38.3 0.00486-50.7 0.00463-101-2.31e-4 -152-0.00122-12.8-0.00243-25.6-0.00357-38.3-7.04e-5 -0.787-1.41e-4 -1.57-2.13e-4 -2.38-0.00216-24.2-0.00307-48.5-0.00264-72.7 1.36e-5 -0.76 2.72e-5 -1.52 4.12e-5 -2.3 3.12e-4 -16.7 9.46e-4 -33.4 0.00187-50.1 3.29e-4 -5.97 6.42e-4 -11.9 9.51e-4 -17.9 7.74e-5 -1.49 1.56e-4 -2.97 2.36e-4 -4.46 0.00119-22.2 1.76e-4 -44.4-0.00235-66.7-8.28e-5 -0.729-1.66e-4 -1.46-2.51e-4 -2.21-8.27e-5 -0.727-1.65e-4 -1.45-2.51e-4 -2.2-0.00275-24.5-0.00175-49 0.00353-73.5 0.00295-14.1 0.00312-28.3-6.46e-4 -42.4-0.00223-9.43-8.65e-4 -18.9 0.0035-28.3 0.00239-5.38 0.00316-10.8-4.06e-4 -16.1-0.00321-4.89-0.00189-9.78 0.00318-14.7 0.00101-1.76 3.23e-4 -3.53-0.00221-5.29-0.00318-2.38-2.66e-4 -4.77 0.00424-7.15-0.00239-0.69-0.00478-1.38-0.00724-2.09 0.0125-3.22 0.151-6.13 1.13-9.21z" fill="#000002"/>
<path transform="translate(1507)" d="m0 0h93v421h-93c-0.854-4.27-1.13-7.71-1.13-12-0.00145-0.698-0.00291-1.4-0.0044-2.12-0.00366-2.35-1.75e-4 -4.69 0.00326-7.04-0.00115-1.7-0.00274-3.39-0.00473-5.09-0.00418-4.67-0.00211-9.33 9.86e-4 -14 0.00226-5.03-0.00123-10.1-0.00398-15.1-0.00445-9.85-0.00348-19.7-5.87e-4 -29.6 0.00226-8.01 0.00257-16 0.00148-24-1.53e-4 -1.14-3.06e-4 -2.28-4.64e-4 -3.45-3.2e-4 -2.31-6.44e-4 -4.63-9.73e-4 -6.94-0.00285-21.7 4.3e-4 -43.4 0.0058-65.1 0.00447-18.6 0.00369-37.3-9.19e-4 -55.9-0.00535-21.6-0.00746-43.2-0.00439-64.9 3.19e-4 -2.3 6.33e-4 -4.61 9.43e-4 -6.91 1.54e-4 -1.13 3.09e-4 -2.27 4.68e-4 -3.44 8.64e-4 -8-5.96e-4 -16-0.00295-24-0.0028-9.75-0.00205-19.5 0.00328-29.2 0.00263-4.97 0.00365-9.95 3.51e-4 -14.9-0.00297-4.55-0.00135-9.1 0.00398-13.7 0.00112-1.65 5.42e-4 -3.3-0.00188-4.95-0.00303-2.24 6.5e-5 -4.47 0.00472-6.71 1.62e-4 -1.24 3.25e-4 -2.49 4.92e-4 -3.77 0.125-3.25 0.125-3.25 1.13-8.25z" fill="#000002"/>
</svg>
